<svg width="33" height="32" viewBox="0 0 33 32" fill="none" xmlns="http://www.w3.org/2000/svg">
<g clip-path="url(#clip0_1647_32023)">
<path opacity="0.2" d="M7.62573 25.1924C6.47523 24.0419 7.23831 21.6265 6.65271 20.2111C6.04566 18.744 3.81812 17.5631 3.81812 16C3.81812 14.4368 6.04567 13.256 6.65272 11.7888C7.23832 10.3735 6.47523 7.95811 7.62573 6.80761C8.77623 5.65711 11.1917 6.42019 12.607 5.8346C14.0742 5.22755 15.255 3 16.8182 3C18.3813 3 19.5621 5.22756 21.0293 5.8346C22.4446 6.4202 24.86 5.65711 26.0105 6.80761C27.161 7.95811 26.3979 10.3735 26.9835 11.7889C27.5906 13.256 29.8181 14.4369 29.8181 16C29.8181 17.5632 27.5906 18.744 26.9835 20.2112C26.3979 21.6265 27.161 24.0419 26.0105 25.1924C24.86 26.3429 22.4446 25.5798 21.0293 26.1654C19.5621 26.7725 18.3812 29 16.8181 29C15.2549 29 14.0741 26.7724 12.607 26.1654C11.1916 25.5798 8.77623 26.3429 7.62573 25.1924Z" fill="#0A65CC"/>
<path d="M7.62573 25.1924C6.47523 24.0419 7.23831 21.6265 6.65271 20.2111C6.04566 18.744 3.81812 17.5631 3.81812 16C3.81812 14.4368 6.04567 13.256 6.65272 11.7888C7.23832 10.3735 6.47523 7.95811 7.62573 6.80761C8.77623 5.65711 11.1917 6.42019 12.607 5.8346C14.0742 5.22755 15.255 3 16.8182 3C18.3813 3 19.5621 5.22756 21.0293 5.8346C22.4446 6.4202 24.86 5.65711 26.0105 6.80761C27.161 7.95811 26.3979 10.3735 26.9835 11.7889C27.5906 13.256 29.8181 14.4369 29.8181 16C29.8181 17.5632 27.5906 18.744 26.9835 20.2112C26.3979 21.6265 27.161 24.0419 26.0105 25.1924C24.86 26.3429 22.4446 25.5798 21.0293 26.1654C19.5621 26.7725 18.3812 29 16.8181 29C15.2549 29 14.0741 26.7724 12.607 26.1654C11.1916 25.5798 8.77623 26.3429 7.62573 25.1924Z" stroke="#0A65CC" stroke-width="2" stroke-linecap="round" stroke-linejoin="round"/>
<path d="M22.3181 13L14.9847 20L11.3181 16.5" stroke="#0A65CC" stroke-width="2" stroke-linecap="round" stroke-linejoin="round"/>
</g>
<defs>
<clipPath id="clip0_1647_32023">
<rect width="32" height="32" fill="white" transform="translate(0.818115)"/>
</clipPath>
</defs>
</svg>
