<svg width="33" height="32" viewBox="0 0 33 32" fill="none" xmlns="http://www.w3.org/2000/svg">
<g clip-path="url(#clip0_1647_31999)">
<path opacity="0.2" d="M10.7273 15.9981C10.7273 14.0202 11.3138 12.0868 12.4126 10.4423C13.5114 8.79786 15.0732 7.51613 16.9005 6.75926C18.7278 6.00238 20.7384 5.80435 22.6782 6.1902C24.618 6.57605 26.3999 7.52846 27.7984 8.92698C29.1969 10.3255 30.1493 12.1073 30.5352 14.0471C30.921 15.987 30.723 17.9976 29.9661 19.8249C29.2092 21.6521 27.9275 23.2139 26.283 24.3127C24.6385 25.4116 22.7051 25.9981 20.7273 25.9981H9.72733C8.73462 25.9971 7.75348 25.785 6.84901 25.3758C5.94455 24.9667 5.13745 24.3698 4.4813 23.6249C3.82514 22.88 3.33493 22.004 3.04321 21.0551C2.75149 20.1063 2.66492 19.1062 2.78925 18.1213C2.91359 17.1364 3.24599 16.1892 3.76438 15.3426C4.28277 14.496 4.9753 13.7694 5.79601 13.2109C6.61671 12.6524 7.54682 12.2749 8.52459 12.1033C9.50236 11.9318 10.5054 11.9702 11.4672 12.216" fill="#F1F2F4"/>
<path d="M12.7266 25.998H9.72659C8.73389 25.9971 7.75275 25.785 6.84828 25.3758C5.94382 24.9667 5.13672 24.3698 4.48057 23.6249C3.82441 22.88 3.3342 22.004 3.04248 21.0551C2.75075 20.1063 2.66419 19.1062 2.78852 18.1213C2.91286 17.1364 3.24525 16.1892 3.76365 15.3426C4.28204 14.496 4.97457 13.7694 5.79527 13.2109C6.61598 12.6524 7.54608 12.2749 8.52386 12.1033C9.50163 11.9318 10.5047 11.9702 11.4665 12.216" stroke="#F1F2F4" stroke-width="2" stroke-linecap="round" stroke-linejoin="round"/>
<path d="M10.7266 15.998C10.7267 14.4136 11.1034 12.8518 11.8255 11.4415C12.5476 10.0312 13.5945 8.81262 14.88 7.88625C16.1654 6.95988 17.6526 6.35221 19.2189 6.11333C20.7852 5.87445 22.3859 6.01118 23.8891 6.51227C25.3922 7.01335 26.7548 7.86445 27.8644 8.99541C28.9741 10.1264 29.7992 11.5048 30.2717 13.0172C30.7441 14.5296 30.8504 16.1326 30.5818 17.6941C30.3133 19.2557 29.6775 20.731 28.7269 21.9986" stroke="#F1F2F4" stroke-width="2" stroke-linecap="round" stroke-linejoin="round"/>
<path d="M15.4839 20.2408L19.7265 15.998L23.9691 20.2408" stroke="#F1F2F4" stroke-width="2" stroke-linecap="round" stroke-linejoin="round"/>
<path d="M19.7266 25.998V15.998" stroke="#F1F2F4" stroke-width="2" stroke-linecap="round" stroke-linejoin="round"/>
</g>
<defs>
<clipPath id="clip0_1647_31999">
<rect width="32" height="32" fill="white" transform="translate(0.727295)"/>
</clipPath>
</defs>
</svg>
