<svg width="32" height="32" viewBox="0 0 32 32" fill="none" xmlns="http://www.w3.org/2000/svg">
<g clip-path="url(#clip0_1_1065)">
<path opacity="0.2" d="M16.0001 16C22.0752 16 27.0001 13.3137 27.0001 10C27.0001 6.68629 22.0752 4 16.0001 4C9.92493 4 5.00006 6.68629 5.00006 10C5.00006 13.3137 9.92493 16 16.0001 16Z" fill="white"/>
<path d="M16.0001 16C22.0752 16 27.0001 13.3137 27.0001 10C27.0001 6.68629 22.0752 4 16.0001 4C9.92493 4 5.00006 6.68629 5.00006 10C5.00006 13.3137 9.92493 16 16.0001 16Z" stroke="white" stroke-width="2" stroke-linecap="round" stroke-linejoin="round"/>
<path d="M5.00006 10V16C5.00006 19.3137 9.92493 22 16.0001 22C22.0752 22 27.0001 19.3137 27.0001 16V10" stroke="white" stroke-width="2" stroke-linecap="round" stroke-linejoin="round"/>
<path d="M5.00006 16V22C5.00006 25.3137 9.92493 28 16.0001 28C22.0752 28 27.0001 25.3137 27.0001 22V16" stroke="white" stroke-width="2" stroke-linecap="round" stroke-linejoin="round"/>
</g>
<defs>
<clipPath id="clip0_1_1065">
<rect width="32" height="32" fill="white"/>
</clipPath>
</defs>
</svg>
