<svg width="24" height="24" viewBox="0 0 24 24" fill="none" xmlns="http://www.w3.org/2000/svg">
<g clip-path="url(#clip0_4527_524)">
<path d="M5.31891 14.5035L4.4835 17.6222L1.43011 17.6868C0.517594 15.9943 0 14.0578 0 12C0 10.0101 0.483938 8.13362 1.34175 6.48132H1.34241L4.06078 6.9797L5.25159 9.68176C5.00236 10.4084 4.86652 11.1884 4.86652 12C4.86661 12.8809 5.02617 13.7249 5.31891 14.5035Z" fill="#FBBB00"/>
<path d="M23.7903 9.7583C23.9281 10.4842 24 11.2339 24 12.0001C24 12.8592 23.9097 13.6972 23.7376 14.5056C23.1534 17.2563 21.627 19.6583 19.5125 21.3581L19.5119 21.3574L16.0879 21.1827L15.6034 18.1576C17.0064 17.3348 18.1029 16.0471 18.6805 14.5056H12.2638V9.7583H18.7741H23.7903Z" fill="#518EF8"/>
<path d="M19.5119 21.3574L19.5125 21.358C17.4561 23.011 14.8437 24 12 24C7.43013 24 3.45696 21.4457 1.43013 17.6868L5.31893 14.5035C6.33232 17.2081 8.94133 19.1334 12 19.1334C13.3147 19.1334 14.5464 18.778 15.6033 18.1576L19.5119 21.3574Z" fill="#28B446"/>
<path d="M19.6596 2.76262L15.7721 5.94525C14.6783 5.26153 13.3853 4.86656 12 4.86656C8.87209 4.86656 6.21428 6.88017 5.25166 9.68175L1.34242 6.48131H1.34177C3.33892 2.63077 7.3622 0 12 0C14.9117 0 17.5813 1.03716 19.6596 2.76262Z" fill="#F14336"/>
</g>
<defs>
<clipPath id="clip0_4527_524">
<rect width="24" height="24" fill="white"/>
</clipPath>
</defs>
</svg>
