<svg width="24" height="24" viewBox="0 0 24 24" fill="none" xmlns="http://www.w3.org/2000/svg">
<g clip-path="url(#clip0_174_2021)">
<path fill-rule="evenodd" clip-rule="evenodd" d="M11.9931 1.00201C12.3738 1.00201 12.7214 1.21811 12.8898 1.55945L15.7431 7.34079L22.1225 8.26535C22.4994 8.31998 22.8126 8.58394 22.9302 8.94615C23.0478 9.30837 22.9495 9.70595 22.6766 9.97159L18.0537 14.4716L19.1437 20.8259C19.2081 21.2013 19.0537 21.5806 18.7455 21.8043C18.4373 22.028 18.0288 22.0572 17.6919 21.8797L11.9996 18.8801L6.29347 21.8801C5.95655 22.0573 5.54828 22.0278 5.24032 21.804C4.93237 21.5803 4.77815 21.2011 4.84251 20.8259L5.93254 14.4716L1.3096 9.97159C1.0367 9.70595 0.938377 9.30837 1.056 8.94615C1.17363 8.58394 1.48678 8.31998 1.86368 8.26535L8.24315 7.34079L11.0964 1.55945C11.2648 1.21811 11.6125 1.00201 11.9931 1.00201ZM11.9931 4.26159L9.80385 8.69758C9.65813 8.99284 9.3764 9.19745 9.05054 9.24467L4.15852 9.95366L7.70462 13.4054C7.94065 13.6352 8.0484 13.9664 7.99271 14.2911L7.15631 19.1669L11.5347 16.8649C11.8264 16.7116 12.1748 16.7117 12.4663 16.8653L16.8295 19.1646L15.9935 14.2911C15.9378 13.9664 16.0456 13.6352 16.2816 13.4054L19.8277 9.95366L14.9357 9.24467C14.6098 9.19745 14.3281 8.99284 14.1824 8.69758L11.9931 4.26159Z" fill="#25324B"/>
</g>
<defs>
<clipPath id="clip0_174_2021">
<rect width="24" height="24" fill="white"/>
</clipPath>
</defs>
</svg>
