<svg width="24" height="24" viewBox="0 0 24 24" fill="none" xmlns="http://www.w3.org/2000/svg">
<g clip-path="url(#clip0_4579_1669)">
<path d="M12 21L8.39999 17.4H5.99999C5.04521 17.4 4.12954 17.0207 3.45441 16.3456C2.77928 15.6705 2.39999 14.7548 2.39999 13.8V6.6C2.39999 5.64522 2.77928 4.72955 3.45441 4.05442C4.12954 3.37928 5.04521 3 5.99999 3H18C18.9548 3 19.8704 3.37928 20.5456 4.05442C21.2207 4.72955 21.6 5.64522 21.6 6.6V13.8C21.6 14.7548 21.2207 15.6705 20.5456 16.3456C19.8704 17.0207 18.9548 17.4 18 17.4H15.6L12 21Z" stroke="#7C8493" stroke-width="2" stroke-linecap="round" stroke-linejoin="round"/>
<path d="M7.20004 7.7998H16.8" stroke="#7C8493" stroke-width="2" stroke-linecap="round" stroke-linejoin="round"/>
<path d="M7.20004 12.6001H14.4" stroke="#7C8493" stroke-width="2" stroke-linecap="round" stroke-linejoin="round"/>
</g>
<defs>
<clipPath id="clip0_4579_1669">
<rect width="24" height="24" fill="white"/>
</clipPath>
</defs>
</svg>
