<svg width="24" height="24" viewBox="0 0 24 24" fill="none" xmlns="http://www.w3.org/2000/svg">
<path fill-rule="evenodd" clip-rule="evenodd" d="M12 4.99998C11.4696 4.99998 10.9609 5.2107 10.5858 5.58577C10.2107 5.96084 10 6.46955 10 6.99998C10 7.53042 10.2107 8.03913 10.5858 8.4142C10.9609 8.78927 11.4696 8.99998 12 8.99998C12.5304 8.99998 13.0391 8.78927 13.4142 8.4142C13.7893 8.03913 14 7.53042 14 6.99998C14 6.46955 13.7893 5.96084 13.4142 5.58577C13.0391 5.2107 12.5304 4.99998 12 4.99998ZM9.17157 4.17156C9.92172 3.42141 10.9391 2.99998 12 2.99998C13.0609 2.99998 14.0783 3.42141 14.8284 4.17156C15.5786 4.9217 16 5.93912 16 6.99998C16 8.06085 15.5786 9.07827 14.8284 9.82841C14.0783 10.5786 13.0609 11 12 11C10.9391 11 9.92172 10.5786 9.17157 9.82841C8.42143 9.07827 8 8.06085 8 6.99998C8 5.93912 8.42143 4.9217 9.17157 4.17156ZM5 8.99998C4.73478 8.99998 4.48043 9.10534 4.29289 9.29288C4.10536 9.48041 4 9.73477 4 9.99998C4 10.2652 4.10536 10.5196 4.29289 10.7071C4.48043 10.8946 4.73478 11 5 11C5.26522 11 5.51957 10.8946 5.70711 10.7071C5.89464 10.5196 6 10.2652 6 9.99998C6 9.73477 5.89464 9.48041 5.70711 9.29288C5.51957 9.10534 5.26522 8.99998 5 8.99998ZM2.87868 7.87866C3.44129 7.31606 4.20435 6.99998 5 6.99998C5.79565 6.99998 6.55871 7.31606 7.12132 7.87866C7.68393 8.44127 8 9.20434 8 9.99998C8 10.7956 7.68393 11.5587 7.12132 12.1213C6.55871 12.6839 5.79565 13 5 13C4.20435 13 3.44129 12.6839 2.87868 12.1213C2.31607 11.5587 2 10.7956 2 9.99998C2 9.20434 2.31607 8.44127 2.87868 7.87866ZM19 8.99998C18.7348 8.99998 18.4804 9.10534 18.2929 9.29288C18.1054 9.48042 18 9.73477 18 9.99998C18 10.2652 18.1054 10.5196 18.2929 10.7071C18.4804 10.8946 18.7348 11 19 11C19.2652 11 19.5196 10.8946 19.7071 10.7071C19.8946 10.5196 20 10.2652 20 9.99998C20 9.73477 19.8946 9.48042 19.7071 9.29288C19.5196 9.10534 19.2652 8.99998 19 8.99998ZM16.8787 7.87866C17.4413 7.31606 18.2043 6.99998 19 6.99998C19.7957 6.99998 20.5587 7.31606 21.1213 7.87866C21.6839 8.44127 22 9.20433 22 9.99998C22 10.7956 21.6839 11.5587 21.1213 12.1213C20.5587 12.6839 19.7957 13 19 13C18.2043 13 17.4413 12.6839 16.8787 12.1213C16.3161 11.5587 16 10.7956 16 9.99998C16 9.20433 16.3161 8.44127 16.8787 7.87866ZM12 13.9993C11.2003 13.9993 10.4189 14.2389 9.75658 14.6872C9.13228 15.1098 8.64084 15.6996 8.33765 16.3878L8.09655 19H15.9034L15.6623 16.3878C15.3592 15.6996 14.8677 15.1098 14.2434 14.6872C13.5811 14.2389 12.7997 13.9993 12 13.9993ZM18 19H21V18.0001C21 18 21 18.0001 21 18.0001C21 17.5844 20.8704 17.1791 20.6294 16.8405C20.3884 16.5018 20.0479 16.2467 19.6552 16.1106C19.2625 15.9744 18.8371 15.964 18.4382 16.0807C18.2014 16.15 17.981 16.2621 17.7871 16.41C17.9262 16.9175 18 17.451 18 18V19ZM16.9298 14.5776C16.51 13.9732 15.9804 13.4479 15.3646 13.031C14.3713 12.3586 13.1994 11.9993 12 11.9993C10.8006 11.9993 9.62867 12.3586 8.63543 13.031C8.01963 13.4479 7.49002 13.9732 7.07024 14.5776C6.77575 14.3995 6.45782 14.2591 6.12365 14.1613C5.32584 13.9278 4.47509 13.9486 3.68967 14.2209C2.90425 14.4932 2.22318 15.0035 1.74115 15.6807C1.25911 16.358 1.00006 17.1686 1 17.9999V20C1 20.5523 1.44772 21 2 21H22C22.5523 21 23 20.5523 23 20V18C22.9999 17.1687 22.7409 16.358 22.2589 15.6807C21.7768 15.0035 21.0958 14.4932 20.3103 14.2209C19.5249 13.9486 18.6742 13.9278 17.8763 14.1613C17.5422 14.2591 17.2242 14.3995 16.9298 14.5776ZM6.21295 16.41C6.01904 16.2621 5.79859 16.15 5.56183 16.0807C5.16292 15.964 4.73754 15.9744 4.34483 16.1106C3.95212 16.2467 3.61159 16.5018 3.37057 16.8405C3.12957 17.1791 3.00005 17.5844 3 18C3 18 3 18 3 18V19H6V18C6 17.451 6.07383 16.9175 6.21295 16.41Z" fill="#4640DE"/>
</svg>
