<svg width="21" height="20" viewBox="0 0 21 20" fill="none" xmlns="http://www.w3.org/2000/svg">
<g clip-path="url(#clip0_4449_1338)">
<path d="M20.4813 5.88005C20.4344 4.81738 20.2626 4.0868 20.0164 3.45374C19.7625 2.78176 19.3718 2.18014 18.8599 1.68002C18.3597 1.1721 17.7542 0.777435 17.09 0.527447C16.4532 0.281274 15.7265 0.109427 14.6638 0.0625732C13.5932 0.0117516 13.2533 0 10.5379 0C7.82258 0 7.4827 0.0117516 6.41606 0.0586052C5.35338 0.105459 4.6228 0.277459 3.9899 0.523479C3.31777 0.777435 2.71615 1.16814 2.21602 1.68002C1.70811 2.18014 1.3136 2.78573 1.06346 3.44992C0.817285 4.0868 0.645437 4.81341 0.598584 5.87609C0.547762 6.9467 0.536011 7.28658 0.536011 10.002C0.536011 12.7173 0.547762 13.0572 0.594616 14.1239C0.641469 15.1865 0.813469 15.9171 1.05964 16.5502C1.3136 17.2221 1.70811 17.8238 2.21602 18.3239C2.71615 18.8318 3.32174 19.2265 3.98593 19.4765C4.6228 19.7226 5.34941 19.8945 6.41224 19.9413C7.47873 19.9883 7.81876 19.9999 10.5341 19.9999C13.2495 19.9999 13.5894 19.9883 14.656 19.9413C15.7187 19.8945 16.4493 19.7226 17.0822 19.4765C18.4263 18.9568 19.489 17.8941 20.0086 16.5502C20.2546 15.9133 20.4266 15.1865 20.4735 14.1239C20.5204 13.0572 20.5321 12.7173 20.5321 10.002C20.5321 7.28658 20.5281 6.9467 20.4813 5.88005ZM18.6802 14.0457C18.6372 15.0225 18.4731 15.5499 18.3364 15.9015C18.0003 16.7728 17.3088 17.4643 16.4375 17.8004C16.0859 17.9372 15.5546 18.1012 14.5817 18.1441C13.5268 18.1911 13.2104 18.2027 10.5419 18.2027C7.8734 18.2027 7.55306 18.1911 6.50198 18.1441C5.52523 18.1012 4.99778 17.9372 4.64615 17.8004C4.21257 17.6402 3.8179 17.3862 3.49755 17.0541C3.16546 16.7298 2.9115 16.3391 2.75125 15.9055C2.61451 15.5539 2.45044 15.0225 2.40756 14.0497C2.36055 12.9948 2.34895 12.6783 2.34895 10.0097C2.34895 7.34122 2.36055 7.02087 2.40756 5.96995C2.45044 4.99319 2.61451 4.46575 2.75125 4.11412C2.9115 3.68038 3.16546 3.28586 3.50152 2.96536C3.82568 2.63327 4.21638 2.37931 4.65012 2.21921C5.00175 2.08247 5.53316 1.9184 6.50595 1.87537C7.56084 1.82851 7.87737 1.81676 10.5457 1.81676C13.2182 1.81676 13.5346 1.82851 14.5857 1.87537C15.5624 1.9184 16.0899 2.08247 16.4415 2.21921C16.8751 2.37931 17.2698 2.63327 17.5901 2.96536C17.9222 3.28967 18.1761 3.68038 18.3364 4.11412C18.4731 4.46575 18.6372 4.99701 18.6802 5.96995C18.7271 7.02484 18.7388 7.34122 18.7388 10.0097C18.7388 12.6783 18.7271 12.9908 18.6802 14.0457Z" fill="#767F8C"/>
<path d="M10.5379 4.86401C7.70147 4.86401 5.40015 7.16518 5.40015 10.0017C5.40015 12.8383 7.70147 15.1395 10.5379 15.1395C13.3744 15.1395 15.6756 12.8383 15.6756 10.0017C15.6756 7.16518 13.3744 4.86401 10.5379 4.86401ZM10.5379 13.3344C8.69776 13.3344 7.20516 11.842 7.20516 10.0017C7.20516 8.16147 8.69776 6.66902 10.5379 6.66902C12.3781 6.66902 13.8706 8.16147 13.8706 10.0017C13.8706 11.842 12.3781 13.3344 10.5379 13.3344Z" fill="#767F8C"/>
<path d="M17.0783 4.6611C17.0783 5.32346 16.5413 5.86052 15.8788 5.86052C15.2164 5.86052 14.6793 5.32346 14.6793 4.6611C14.6793 3.99858 15.2164 3.46167 15.8788 3.46167C16.5413 3.46167 17.0783 3.99858 17.0783 4.6611Z" fill="#767F8C"/>
</g>
<defs>
<clipPath id="clip0_4449_1338">
<rect width="20" height="20" fill="white" transform="translate(0.500854)"/>
</clipPath>
</defs>
</svg>
