<svg width="33" height="32" viewBox="0 0 33 32" fill="none" xmlns="http://www.w3.org/2000/svg">
<g clip-path="url(#clip0_1647_32011)">
<path opacity="0.2" d="M14.7722 24.9995C20.5711 24.9995 25.2722 20.2985 25.2722 14.4995C25.2722 8.70052 20.5711 3.99951 14.7722 3.99951C8.97317 3.99951 4.27216 8.70052 4.27216 14.4995C4.27216 20.2985 8.97317 24.9995 14.7722 24.9995Z" fill="#0A65CC"/>
<path d="M10.7722 14.5H18.7722" stroke="#0A65CC" stroke-width="2" stroke-linecap="round" stroke-linejoin="round"/>
<path d="M14.7722 10.5V18.5" stroke="#0A65CC" stroke-width="2" stroke-linecap="round" stroke-linejoin="round"/>
<path d="M14.7722 24.9995C20.5711 24.9995 25.2722 20.2985 25.2722 14.4995C25.2722 8.70052 20.5711 3.99951 14.7722 3.99951C8.97317 3.99951 4.27216 8.70052 4.27216 14.4995C4.27216 20.2985 8.97317 24.9995 14.7722 24.9995Z" stroke="#0A65CC" stroke-width="2" stroke-linecap="round" stroke-linejoin="round"/>
<path d="M22.1964 21.9246L28.2714 27.9996" stroke="#0A65CC" stroke-width="2" stroke-linecap="round" stroke-linejoin="round"/>
</g>
<defs>
<clipPath id="clip0_1647_32011">
<rect width="32" height="32" fill="white" transform="translate(0.272766)"/>
</clipPath>
</defs>
</svg>
