<svg width="40" height="40" viewBox="0 0 40 40" fill="none" xmlns="http://www.w3.org/2000/svg">
<circle cx="20" cy="20" r="20" fill="white"/>
<path fill-rule="evenodd" clip-rule="evenodd" d="M18.483 28.2365C19.001 28.8144 19.666 29.132 20.356 29.132H20.357C21.05 29.132 21.718 28.8144 22.237 28.2355C22.515 27.928 22.989 27.9029 23.296 28.1804C23.604 28.4579 23.629 28.9336 23.352 29.2411C22.544 30.1396 21.481 30.6344 20.357 30.6344H20.355C19.234 30.6334 18.173 30.1386 17.368 29.2401C17.091 28.9326 17.116 28.4569 17.424 28.1804C17.732 27.9019 18.206 27.927 18.483 28.2365ZM20.4058 9.09912C24.8508 9.09912 27.8368 12.5668 27.8368 15.8051C27.8368 17.4708 28.2598 18.177 28.7088 18.9262C29.1528 19.6654 29.6558 20.5048 29.6558 22.0914C29.3068 26.1451 25.0818 26.4756 20.4058 26.4756C15.7298 26.4756 11.5038 26.1451 11.1588 22.1555C11.1558 20.5048 11.6588 19.6654 12.1028 18.9262L12.2595 18.662C12.6455 17.9976 12.9748 17.2749 12.9748 15.8051C12.9748 12.5668 15.9608 9.09912 20.4058 9.09912ZM20.4058 10.6016C16.9108 10.6016 14.4748 13.3441 14.4748 15.8051C14.4748 17.8875 13.8978 18.8501 13.3878 19.6995C12.9788 20.3816 12.6558 20.9205 12.6558 22.0914C12.8228 23.9805 14.0678 24.9731 20.4058 24.9731C26.7088 24.9731 27.9928 23.9364 28.1588 22.0263C28.1558 20.9205 27.8328 20.3816 27.4238 19.6995C26.9138 18.8501 26.3368 17.8875 26.3368 15.8051C26.3368 13.3441 23.9008 10.6016 20.4058 10.6016Z" fill="#25324B"/>
<path d="M26 17.5805C27.9338 17.5805 29.5 16.0105 29.5 14.0755C29.5 12.1406 27.9338 10.5706 26 10.5706C24.0662 10.5706 22.5 12.1406 22.5 14.0755C22.5 16.0105 24.0662 17.5805 26 17.5805Z" fill="#FF6550" stroke="white"/>
</svg>
