<svg width="44" height="45" viewBox="0 0 44 45" fill="none" xmlns="http://www.w3.org/2000/svg">
<path d="M36.3815 19.5623H35.2001V19.5001H22V25.5001H30.2889C29.0797 28.9928 25.8303 31.5001 22 31.5001C17.1402 31.5001 13.2 27.4703 13.2 22.5001C13.2 17.5298 17.1402 13.5 22 13.5C24.2433 13.5 26.2842 14.3655 27.8381 15.7793L31.9866 11.5365C29.3671 9.03976 25.8633 7.5 22 7.5C13.9003 7.5 7.33331 14.2163 7.33331 22.5001C7.33331 30.7838 13.9003 37.5001 22 37.5001C30.0997 37.5001 36.6668 30.7838 36.6668 22.5001C36.6668 21.4943 36.5656 20.5126 36.3815 19.5623Z" fill="#FFC107"/>
<path d="M9.02338 15.5183L13.8421 19.1326C15.146 15.831 18.3037 13.5 21.999 13.5C24.2423 13.5 26.2832 14.3655 27.8371 15.7793L31.9856 11.5365C29.3661 9.03976 25.8622 7.5 21.999 7.5C16.3655 7.5 11.4801 10.7528 9.02338 15.5183Z" fill="#FF3D00"/>
<path d="M22.0002 37.5006C25.7886 37.5006 29.2309 36.0179 31.8335 33.6066L27.2942 29.6781C25.8216 30.8189 23.9912 31.5006 22.0002 31.5006C18.1854 31.5006 14.9463 29.0129 13.726 25.5411L8.94318 29.3099C11.3705 34.1676 16.3 37.5006 22.0002 37.5006Z" fill="#4CAF50"/>
<path d="M36.3815 19.5623H35.2001V19.5001H22V25.5001H30.2889C29.7081 27.1778 28.6528 28.6246 27.2918 29.6783C27.2925 29.6776 27.2932 29.6776 27.294 29.6768L31.8333 33.6054C31.5121 33.9039 36.6667 30.0001 36.6667 22.5001C36.6667 21.4943 36.5655 20.5126 36.3815 19.5623Z" fill="#1976D2"/>
</svg>
