<svg width="21" height="20" viewBox="0 0 21 20" fill="none" xmlns="http://www.w3.org/2000/svg">
<g clip-path="url(#clip0_4449_1342)">
<path d="M20.5009 3.79875C19.7571 4.125 18.9646 4.34125 18.1384 4.44625C18.9884 3.93875 19.6371 3.14125 19.9421 2.18C19.1496 2.6525 18.2746 2.98625 17.3421 3.1725C16.5896 2.37125 15.5171 1.875 14.3471 1.875C12.0771 1.875 10.2496 3.7175 10.2496 5.97625C10.2496 6.30125 10.2771 6.61375 10.3446 6.91125C6.93585 6.745 3.9196 5.11125 1.89335 2.6225C1.5396 3.23625 1.3321 3.93875 1.3321 4.695C1.3321 6.115 2.06335 7.37375 3.15335 8.1025C2.4946 8.09 1.84835 7.89875 1.30085 7.5975C1.30085 7.61 1.30085 7.62625 1.30085 7.6425C1.30085 9.635 2.7221 11.29 4.58585 11.6712C4.2521 11.7625 3.88835 11.8062 3.51085 11.8062C3.24835 11.8062 2.98335 11.7913 2.7346 11.7362C3.26585 13.36 4.77335 14.5538 6.56586 14.5925C5.17085 15.6838 3.3996 16.3412 1.4821 16.3412C1.14585 16.3412 0.823354 16.3263 0.500854 16.285C2.3171 17.4563 4.4696 18.125 6.79085 18.125C14.3359 18.125 18.4609 11.875 18.4609 6.4575C18.4609 6.27625 18.4546 6.10125 18.4459 5.9275C19.2596 5.35 19.9434 4.62875 20.5009 3.79875Z" fill="#767F8C"/>
</g>
<defs>
<clipPath id="clip0_4449_1342">
<rect width="20" height="20" fill="white" transform="translate(0.500854)"/>
</clipPath>
</defs>
</svg>
