<svg width="33" height="32" viewBox="0 0 33 32" fill="none" xmlns="http://www.w3.org/2000/svg">
<path d="M5.5 8V24C5.5 24.5304 5.71071 25.0391 6.08579 25.4142C6.46086 25.7893 6.96957 26 7.5 26H27.5C27.7652 26 28.0196 25.8946 28.2071 25.7071C28.3946 25.5196 28.5 25.2652 28.5 25V11C28.5 10.7348 28.3946 10.4804 28.2071 10.2929C28.0196 10.1054 27.7652 10 27.5 10H7.5C6.96957 10 6.46086 9.78929 6.08579 9.41421C5.71071 9.03914 5.5 8.53043 5.5 8ZM5.5 8C5.5 7.46957 5.71071 6.96086 6.08579 6.58579C6.46086 6.21071 6.96957 6 7.5 6H24.5" stroke="#0A65CC" stroke-width="2" stroke-linecap="round" stroke-linejoin="round"/>
<path d="M23.5 18C23.5 18.2761 23.2761 18.5 23 18.5C22.7239 18.5 22.5 18.2761 22.5 18C22.5 17.7239 22.7239 17.5 23 17.5C23.2761 17.5 23.5 17.7239 23.5 18Z" fill="#18191C" stroke="#0A65CC" stroke-width="2"/>
</svg>
