<svg width="21" height="20" viewBox="0 0 21 20" fill="none" xmlns="http://www.w3.org/2000/svg">
<g clip-path="url(#clip0_4449_1335)">
<path d="M20.0888 5.19872C19.8582 4.34194 19.1827 3.66659 18.3261 3.43588C16.761 3.00757 10.5007 3.00757 10.5007 3.00757C10.5007 3.00757 4.24046 3.00757 2.67538 3.41955C1.83523 3.65011 1.14325 4.3421 0.912687 5.19872C0.500854 6.76366 0.500854 10.0092 0.500854 10.0092C0.500854 10.0092 0.500854 13.271 0.912687 14.8197C1.1434 15.6763 1.81875 16.3518 2.67553 16.5825C4.25694 17.0108 10.5008 17.0108 10.5008 17.0108C10.5008 17.0108 16.761 17.0108 18.3261 16.5988C19.1829 16.3683 19.8582 15.6928 20.0889 14.8361C20.5008 13.271 20.5008 10.0257 20.5008 10.0257C20.5008 10.0257 20.5173 6.76366 20.0888 5.19872Z" fill="#767F8C"/>
<path d="M8.50745 13.0077L13.7133 10.0093L8.50745 7.01099V13.0077Z" fill="#18191C"/>
</g>
<defs>
<clipPath id="clip0_4449_1335">
<rect width="20" height="20" fill="white" transform="translate(0.500854)"/>
</clipPath>
</defs>
</svg>
